<?xml version="1.0" encoding="utf-8"?>
<!-- Generator: Adobe Illustrator 26.0.3, SVG Export Plug-In . SVG Version: 6.00 Build 0)  -->
<svg version="1.1" id="Layer_1" xmlns="http://www.w3.org/2000/svg" xmlns:xlink="http://www.w3.org/1999/xlink" x="0px" y="0px"
	 viewBox="0 0 612 600" style="enable-background:new 0 0 612 600;" xml:space="preserve">
<style type="text/css">
	.st0{fill:none;}
	.st1{font-family:'Helvetica';}
	.st2{font-size:12px;}
	.st3{fill:#FFFFFF;stroke:#FFFFFF;stroke-miterlimit:10;}
	.st4{font-family:'HelveticaNeue';}
	.st5{font-size:8px;}
</style>
<image style="overflow:visible;enable-background:new    ;" width="595" height="427" xlink:href="4B94DB191A2A7E5F.png"  transform="matrix(0.5865 0 0 0.5865 9.4449 316.5757)">
</image>
<rect x="136.3" y="297.1" class="st0" width="216" height="39"/>
<text transform="matrix(1 0 0 1 136.3332 305.7036)" class="st1 st2">San Juan, Puerto Rico</text>
<image style="overflow:visible;enable-background:new    ;" width="551" height="425" xlink:href="4B94DB191A2A7E5D.png"  transform="matrix(0.5877 0 0 0.5877 28.5148 33.3338)">
</image>
<rect x="136.3" y="13.5" class="st0" width="216" height="39"/>
<text transform="matrix(1 0 0 1 136.3332 22.1405)" class="st1 st2">Tucson, Arizona, USA</text>
<rect x="237.1" y="234.3" class="st3" width="93.4" height="13.9"/>
<rect x="265.8" y="517.6" class="st3" width="93.4" height="13.9"/>
<rect x="333.8" y="200.7" class="st0" width="43.9" height="9.1"/>
<text transform="matrix(1 0 0 1 333.7794 206.3786)" class="st4 st5">(54.7%)</text>
<rect x="333.8" y="212.1" class="st0" width="43.9" height="9.1"/>
<text transform="matrix(1 0 0 1 333.7794 217.836)" class="st4 st5">(43.5%)</text>
<rect x="333.8" y="223.6" class="st0" width="43.9" height="9.1"/>
<text transform="matrix(1 0 0 1 333.7794 229.2934)" class="st4 st5">(1.78%)</text>
<rect x="339.2" y="485.6" class="st0" width="43.9" height="9.1"/>
<text transform="matrix(1 0 0 1 339.1527 491.3173)" class="st4 st5">(81.6%)</text>
<rect x="339.2" y="497.1" class="st0" width="43.9" height="9.1"/>
<text transform="matrix(1 0 0 1 339.1527 502.7747)" class="st4 st5">(1.42%)</text>
<rect x="339.2" y="508.5" class="st0" width="43.9" height="9.1"/>
<text transform="matrix(1 0 0 1 339.1527 514.2321)" class="st4 st5">(17.0%)</text>
</svg>
